<svg width="38" height="38" viewBox="0 0 38 38" fill="none" xmlns="http://www.w3.org/2000/svg">
<path d="M6.7391 26.2727C4.97104 23.2897 4.35259 19.7639 4.99986 16.3573C5.64714 12.9506 7.51561 9.89739 10.2545 7.77074C12.9934 5.64409 16.4144 4.5903 19.8752 4.80719C23.336 5.02407 26.5986 6.49673 29.0506 8.94869C31.5026 11.4007 32.9752 14.6633 33.1921 18.1241C33.409 21.5849 32.3552 25.0059 30.2285 27.7448C28.1019 30.4837 25.0487 32.3522 21.642 32.9994C18.2354 33.6467 14.7096 33.0283 11.7266 31.2602V31.2602L6.79847 32.6555C6.59656 32.7146 6.38249 32.7182 6.17868 32.6661C5.97488 32.6139 5.78885 32.5079 5.6401 32.3592C5.49134 32.2104 5.38535 32.0244 5.33321 31.8206C5.28108 31.6168 5.28473 31.4027 5.34378 31.2008L6.7391 26.2727Z" stroke="#7B4AE2" stroke-opacity="0.5" stroke-linecap="round" stroke-linejoin="round"/>
<path d="M22.5774 27.3116C21.0149 27.3155 19.467 27.0106 18.0227 26.4145C16.5784 25.8183 15.2661 24.9427 14.1613 23.8378C13.0564 22.733 12.1808 21.4207 11.5846 19.9764C10.9885 18.5321 10.6836 16.9842 10.6875 15.4217C10.6915 14.322 11.1311 13.2686 11.9101 12.4924C12.6891 11.7162 13.744 11.2803 14.8438 11.2803V11.2803C15.0252 11.2789 15.2037 11.3263 15.3604 11.4178C15.5172 11.5092 15.6464 11.6412 15.7344 11.7998L17.4711 14.828C17.5744 15.012 17.6274 15.2201 17.6248 15.4311C17.6222 15.6422 17.5641 15.8488 17.4563 16.0303L16.061 18.3608C16.7757 19.9507 18.0484 21.2234 19.6383 21.9381L21.9688 20.5428C22.1503 20.435 22.3569 20.3769 22.568 20.3743C22.779 20.3717 22.9871 20.4247 23.1711 20.528L26.1993 22.2647C26.3579 22.3527 26.4899 22.4819 26.5813 22.6387C26.6727 22.7954 26.7202 22.9739 26.7188 23.1553C26.7149 24.2539 26.2778 25.3065 25.5024 26.0847C24.727 26.8629 23.6759 27.3037 22.5774 27.3116V27.3116Z" stroke="#7B4AE2" stroke-opacity="0.5" stroke-linecap="round" stroke-linejoin="round"/>
</svg>
